<svg width="43" height="48" viewBox="0 0 43 48" fill="none" xmlns="http://www.w3.org/2000/svg">
<path d="M7.19528 44.0367C8.81507 46.0502 11.2489 48.0002 14.0499 48.0002C15.6437 48.0002 16.9973 47.2502 18.4524 46.7027C19.7923 46.2085 21.2092 45.9548 22.6372 45.9527C24.0152 45.9447 25.3806 46.2126 26.6536 46.7402C27.3285 47.0252 27.9961 47.3288 28.6822 47.5913C29.3783 47.8602 30.1182 47.9988 30.8645 48.0001C32.2452 47.9844 33.5889 47.5518 34.7196 46.759C38.0044 44.5091 40.4382 40.5566 42.1632 37.0958C42.3356 36.751 42.5006 36.4021 42.6657 36.0573C42.9396 35.4797 42.5084 34.7484 41.7433 34.3286C38.3684 32.4761 36.3923 29.6111 36.0622 25.6588C35.7321 21.7064 37.2695 18.5866 40.3559 16.3214L40.9632 15.8225C41.3007 15.5449 41.1169 14.7762 40.4831 14.1762V14.1759C38.1488 11.8771 35.0216 10.5619 31.7456 10.501C31.1098 10.5013 30.4753 10.5539 29.8482 10.6583C26.9983 11.1458 24.7108 12.5035 22.0259 12.5035C21.2113 12.5041 20.4014 12.3776 19.626 12.1285C17.376 11.4083 15.1412 10.501 12.7486 10.501C12.4861 10.501 12.2199 10.501 11.9538 10.5348C9.00408 10.8492 6.25024 12.16 4.14626 14.2508C-0.00108716 18.3383 -0.589672 24.6871 0.445216 30.0527C1.43896 35.25 3.88373 39.9336 7.19504 44.0358L7.19528 44.0367Z" fill="white"/>
<path d="M21.7491 10.5007C21.8027 10.5054 21.8566 10.5054 21.9105 10.5007C29.8338 9.02321 30.7003 2.90345 30.7491 0.668684C30.7525 0.485877 30.6798 0.310098 30.5479 0.183202C30.4163 0.0566392 30.2379 -0.00931619 30.0554 0.00106354C29.9884 0.00106354 29.9218 0.00842947 29.8565 0.0234961C21.8545 1.87599 21.0222 7.64716 20.999 9.80324C21.0027 9.9961 21.0847 10.1796 21.226 10.3108C21.3676 10.4424 21.5562 10.5107 21.749 10.5007L21.7491 10.5007ZM29.1588 1.7598C28.8401 4.0322 27.524 7.53096 22.5741 8.80593C22.8741 6.67213 24.134 3.28959 29.1588 1.7598Z" fill="white"/>
</svg>
