<svg width="150" height="48" viewBox="0 0 150 48" fill="none" xmlns="http://www.w3.org/2000/svg">
<g clip-path="url(#clip0_565_23527)">
<path d="M0.612305 10.2941C4.75625 10.2941 8.96319 10.2321 13.1071 10.356C16.3233 10.418 18.8597 12.6445 19.3546 15.5517C19.9114 18.9539 18.2408 21.7991 15.5195 22.6029C15.4575 22.6029 15.3956 22.6649 15.3336 22.7269C17.9319 23.4687 19.4155 25.1393 19.9104 27.7376C20.6522 31.9436 18.3018 35.4077 13.9109 35.9026C12.9212 36.0265 11.9314 36.0265 11.0037 36.0265C7.53955 36.0265 4.07643 36.0265 0.674289 36.0265C0.612305 27.4277 0.612305 18.8919 0.612305 10.2941ZM6.17889 31.1398C6.24088 31.1398 6.30286 31.2018 6.36485 31.2018C8.09641 31.2018 9.82897 31.2637 11.5605 31.2018C13.2921 31.1398 14.4058 30.0261 14.4058 28.4185C14.4678 26.8099 13.478 25.6352 11.7465 25.4492C10.6328 25.3253 9.52005 25.3872 8.40633 25.3872C7.66452 25.3872 6.92171 25.3872 6.11791 25.3872C6.17889 27.2428 6.17889 29.0983 6.17889 31.1398ZM6.17889 20.5005C7.78749 20.5005 9.3331 20.5005 10.8797 20.5005C11.1886 20.5005 11.4366 20.5005 11.8075 20.4385C12.9212 20.2525 13.725 19.6347 13.9719 18.521C14.4048 16.7274 13.2301 15.1808 11.4356 15.0569C10.5698 14.9949 9.704 15.0569 8.83722 15.0569C7.97044 15.0569 7.16664 15.0569 6.30086 15.0569C6.30086 15.2428 6.23888 15.3658 6.23888 15.4278C6.17889 17.1603 6.17889 18.7689 6.17889 20.5005Z" fill="#EE3624"/>
<path d="M100.137 36.4585C99.456 36.3345 98.8382 36.2725 98.1573 36.0876C93.1466 34.8509 90.5493 30.521 90.9822 25.7582C91.3531 21.7372 93.3945 18.769 97.2296 17.4073C102.611 15.4898 108.859 18.0881 109.786 25.2013C109.91 26.1911 109.91 27.1188 109.972 28.1086C107.56 28.1086 105.272 28.1086 102.983 28.1086C100.695 28.1086 98.4063 28.1086 96.0559 28.1086C96.3648 29.8401 97.2926 31.0778 98.7772 31.7577C101.314 32.8094 103.664 32.2525 105.89 30.8299C106.014 30.7679 106.137 30.6439 106.261 30.583C106.261 30.583 106.323 30.583 106.385 30.583C107.066 31.5727 107.746 32.6244 108.55 33.7991C107.808 34.232 107.189 34.7269 106.446 35.0978C105.148 35.7786 103.725 36.1496 102.24 36.2735C102.054 36.2735 101.931 36.3355 101.745 36.3975C101.188 36.4585 100.631 36.4585 100.137 36.4585ZM105.147 24.8924C105.209 22.604 103.043 20.8104 100.26 20.9334C97.9094 20.9954 95.8679 23.0369 96.1778 24.8924C99.1471 24.8924 102.115 24.8924 105.147 24.8924Z" fill="#EE3624"/>
<path d="M120.054 36.4584C119.25 36.3344 118.446 36.2115 117.642 35.9635C113.869 34.9118 111.332 31.7576 110.9 27.8606C110.591 24.2115 111.641 21.0563 114.611 18.8299C119.064 15.3038 127.847 16.1085 129.58 24.4584C129.704 25.0153 129.766 25.6341 129.827 26.252C129.889 26.9328 129.827 27.5507 129.827 28.2935C127.476 28.2935 125.188 28.2935 122.899 28.2935C120.611 28.2935 118.323 28.2935 115.972 28.2935C116.096 29.3452 116.467 30.211 117.148 30.8298C118.633 32.3764 120.612 32.7473 122.592 32.3144C123.89 32.0675 125.128 31.5726 126.179 30.6439C126.92 31.7576 127.601 32.8083 128.405 33.922C127.848 34.2929 127.291 34.7258 126.734 35.0358C125.312 35.8395 123.765 36.2115 122.096 36.3964C121.91 36.3964 121.725 36.4584 121.539 36.5204C121.167 36.4584 120.611 36.4584 120.054 36.4584ZM116.095 24.8923C119.064 24.8923 122.157 24.8923 125.126 24.8923C125.25 22.6659 123.084 20.8713 120.363 20.9333C117.951 20.9953 115.848 22.8508 116.095 24.8923Z" fill="#EE3624"/>
<path d="M28.632 36.4584C28.0752 36.3344 27.4563 36.2724 26.9005 36.0875C23.2514 35.2217 21.0859 32.5004 21.0859 28.7883C21.0859 25.2012 21.0859 21.6131 21.0859 18.026C21.0859 17.8401 21.0859 17.6551 21.0859 17.3452C22.6945 17.3452 24.3021 17.3452 25.9727 17.3452C25.9727 17.5312 25.9727 17.7781 25.9727 18.026C25.9727 21.4282 25.9727 24.8303 25.9727 28.1705C25.9727 29.7171 26.4056 31.0158 27.8902 31.6966C29.4368 32.4384 31.1064 32.4384 32.529 31.3877C33.5808 30.5839 33.8897 29.4082 33.8897 28.1715C33.8897 24.7693 33.8897 21.4292 33.8897 18.089C33.8897 17.8421 33.8897 17.6561 33.8897 17.3472C35.4983 17.3472 37.1059 17.3472 38.7765 17.3472C38.7765 17.5332 38.7765 17.7801 38.7765 18.028C38.7765 21.5541 38.7765 25.1412 38.7765 28.6673C38.7765 32.9972 36.1171 35.9045 31.8492 36.3374C31.6633 36.3374 31.4783 36.3994 31.1684 36.4614C30.3646 36.4584 29.4978 36.4584 28.632 36.4584Z" fill="#EE3624"/>
<path d="M74.9619 35.9647C74.9619 27.3668 74.9619 18.893 74.9619 10.2952C80.9004 10.2952 86.8379 10.2952 92.8384 10.2952C92.8384 11.1609 92.8384 11.9657 92.8384 12.7695C92.8384 13.2644 92.7764 13.8833 92.8384 14.3781C92.9004 14.873 92.6524 15.059 92.1576 15.059C88.6315 15.059 85.1063 15.059 81.5802 15.059C81.2713 15.059 80.8384 15.059 80.4665 15.059C80.4665 16.7905 80.4665 18.5851 80.4665 20.4406C80.6525 20.4406 80.8994 20.4406 81.1474 20.4406C83.8067 20.4406 86.467 20.4406 89.1263 20.4406C89.6212 20.4406 89.8072 20.6265 89.8072 21.1214C89.7452 22.4821 89.8072 23.8427 89.8072 25.2034C86.653 25.2034 83.6217 25.2034 80.4675 25.2034C80.4675 28.7905 80.4675 32.3166 80.4675 35.9047C78.612 35.9647 76.8174 35.9647 74.9619 35.9647Z" fill="#EE3624"/>
<path d="M131.064 35.9646C131.064 35.7176 131.064 35.5317 131.064 35.2837C131.064 29.5312 131.064 23.8406 131.064 18.0261C131.064 17.2223 131.064 17.2223 131.868 17.2223C134.528 17.2223 137.25 17.1603 139.971 17.3463C143.806 17.6552 146.775 19.3878 148.198 23.1608C149.621 26.9958 148.507 31.3877 145.6 33.8001C143.929 35.2228 141.827 35.9036 139.661 36.0266C136.878 36.1505 134.095 36.0266 131.31 36.0885C131.249 36.0256 131.249 36.0256 131.064 35.9646ZM135.765 32.0676C136.693 32.0676 137.559 32.0676 138.425 32.0676C141.641 32.0676 143.558 30.336 143.991 27.1188C144.238 24.8304 143.001 22.603 141.084 21.7992C139.413 21.0573 137.558 21.4902 135.826 21.3663C135.765 24.9544 135.765 28.4175 135.765 32.0676Z" fill="#EE3624"/>
<path d="M48.6736 21.6141C45.8283 21.6141 43.107 21.6141 40.3227 21.6141C40.3227 20.1915 40.3227 18.8308 40.3227 17.4082C45.3334 17.4082 50.2812 17.4082 55.3539 17.4082C55.3539 18.212 55.2919 18.9548 55.3539 19.8206C55.4159 20.5624 55.1679 21.1193 54.6731 21.7381C52.1987 24.8923 49.7243 27.9855 47.2509 31.1397C47.127 31.3257 47.004 31.4486 46.8181 31.6966C49.7253 31.6966 52.5706 31.6966 55.4159 31.6966C55.4159 33.1812 55.4159 34.5419 55.4159 36.0265C50.4052 36.0265 45.3954 36.0265 40.2617 36.0265C40.2617 34.8508 40.2617 33.6761 40.2617 32.5004C40.2617 32.3144 40.4477 32.1295 40.5706 31.9435C43.107 28.6654 45.6424 25.5101 48.1787 22.232C48.4267 22.047 48.4886 21.9231 48.6736 21.6141Z" fill="#EE3624"/>
<path d="M56.8379 21.6141C56.8379 20.3155 56.8379 19.0778 56.8379 17.8411C56.8379 17.7171 56.8379 17.5942 56.8999 17.4082C61.8486 17.4082 66.8584 17.4082 71.8691 17.4082C71.8691 18.5219 71.8691 19.6346 71.8691 20.8103C71.8691 20.9963 71.6831 21.1193 71.6221 21.3052C69.0238 24.5834 66.4884 27.7996 63.8901 31.1397C63.7661 31.2637 63.6432 31.4486 63.4572 31.6966C63.7661 31.6966 63.9521 31.6966 64.261 31.6966C66.6734 31.6966 69.1478 31.6966 71.5602 31.6966C71.993 31.6966 72.241 31.8206 72.117 32.2534C72.055 33.4901 72.117 34.6658 72.117 35.9645C67.0453 35.9645 62.0346 35.9645 56.9629 35.9645C56.9629 34.7278 56.9629 33.5521 56.9629 32.3774C56.9629 32.2534 57.0868 32.0685 57.2098 31.9445C59.6842 28.7903 62.1585 25.6351 64.6319 22.4809C64.8179 22.234 65.0028 22.048 65.3127 21.6151C62.4055 21.6141 59.6212 21.6141 56.8379 21.6141Z" fill="#EE3624"/>
</g>
<defs>
<clipPath id="clip0_565_23527">
<rect width="149.962" height="47.375" fill="white" transform="translate(0.0185547 0.145752)"/>
</clipPath>
</defs>
</svg>
