<svg width="24" height="28" viewBox="0 0 24 28" fill="none" xmlns="http://www.w3.org/2000/svg">
<path fill-rule="evenodd" clip-rule="evenodd" d="M6.39289 5.83333C6.45154 6.87167 6.59816 7.88667 6.83275 8.855L5.65978 10.255C5.25901 8.855 5.00487 7.37333 4.9169 5.83333H6.39289V5.83333ZM16.0308 19.8567C16.8617 20.1367 17.7121 20.3117 18.5723 20.3817V22.12C17.282 22.015 16.0406 21.7117 14.8578 21.245L16.0308 19.8567V19.8567ZM7.33127 3.5H3.91009C3.37248 3.5 2.93262 4.025 2.93262 4.66667C2.93262 15.6217 10.3712 24.5 19.5497 24.5C20.0873 24.5 20.5272 23.975 20.5272 23.3333V19.2617C20.5272 18.62 20.0873 18.095 19.5497 18.095C18.3377 18.095 17.1549 17.8617 16.0601 17.43C15.9624 17.3833 15.8549 17.3717 15.7571 17.3717C15.503 17.3717 15.2586 17.4883 15.0631 17.71L12.9127 20.2767C10.1464 18.585 7.87865 15.89 6.47109 12.5883L8.62154 10.0217C8.89523 9.695 8.97343 9.24 8.86591 8.83167C8.50424 7.525 8.30874 6.125 8.30874 4.66667C8.30874 4.025 7.86888 3.5 7.33127 3.5Z" fill="white"/>
</svg>
