<svg width="24" height="24" viewBox="0 0 24 24" fill="none" xmlns="http://www.w3.org/2000/svg">
<path d="M23.002 12.2534C23.002 11.5056 22.9402 10.7538 22.8082 10.0182H12.2227V14.2541H18.2845C18.033 15.6202 17.2247 16.8288 16.0412 17.5967V20.3452H19.6577C21.7814 18.4294 23.002 15.6 23.002 12.2534Z" fill="#4285F4"/>
<path d="M12.2222 23.0008C15.249 23.0008 17.8016 22.0267 19.6614 20.3453L16.0449 17.5968C15.0387 18.2677 13.7397 18.6477 12.2263 18.6477C9.29851 18.6477 6.81604 16.7116 5.92532 14.1086H2.19336V16.942C4.09851 20.6565 7.97892 23.0008 12.2222 23.0008Z" fill="#34A853"/>
<path d="M5.92165 14.1086C5.45155 12.7425 5.45155 11.2631 5.92165 9.89696V7.0636H2.19381C0.602062 10.1718 0.602062 13.8338 2.19381 16.942L5.92165 14.1086Z" fill="#FBBC04"/>
<path d="M12.2222 5.35386C13.8222 5.3296 15.3686 5.91972 16.5274 7.00295L19.7315 3.8624C17.7026 1.99505 15.0098 0.968406 12.2222 1.00074C7.97892 1.00074 4.09851 3.34504 2.19336 7.06357L5.92119 9.89694C6.80779 7.28992 9.29439 5.35386 12.2222 5.35386Z" fill="#EA4335"/>
</svg>
