<svg width="28" height="28" viewBox="0 0 28 28" fill="none" xmlns="http://www.w3.org/2000/svg">
<path d="M10.7224 13.9998C10.7224 12.1904 12.1898 10.7231 14.0004 10.7231C15.8109 10.7231 17.2791 12.1904 17.2791 13.9998C17.2791 15.8093 15.8109 17.2766 14.0004 17.2766C12.1898 17.2766 10.7224 15.8093 10.7224 13.9998ZM8.95004 13.9998C8.95004 16.7875 11.2111 19.0471 14.0004 19.0471C16.7897 19.0471 19.0507 16.7875 19.0507 13.9998C19.0507 11.2122 16.7897 8.95254 14.0004 8.95254C11.2111 8.95254 8.95004 11.2122 8.95004 13.9998ZM18.0704 8.75242C18.0703 8.98571 18.1394 9.21378 18.269 9.40781C18.3986 9.60183 18.5829 9.75309 18.7985 9.84245C19.0141 9.93181 19.2514 9.95527 19.4804 9.90985C19.7094 9.86443 19.9197 9.75217 20.0848 9.58728C20.25 9.42238 20.3625 9.21225 20.4081 8.98347C20.4537 8.75468 20.4304 8.5175 20.3412 8.30194C20.2519 8.08637 20.1007 7.90209 19.9067 7.77241C19.7127 7.64272 19.4845 7.57345 19.2511 7.57336H19.2506C18.9377 7.5735 18.6377 7.69776 18.4164 7.91883C18.1951 8.1399 18.0706 8.43971 18.0704 8.75242ZM10.0269 22.0008C9.06799 21.9571 8.54679 21.7975 8.20043 21.6626C7.74124 21.484 7.41361 21.2712 7.06913 20.9274C6.72466 20.5836 6.51143 20.2565 6.33345 19.7975C6.19843 19.4515 6.03871 18.9305 5.99512 17.9722C5.94744 16.9361 5.93792 16.6248 5.93792 13.9999C5.93792 11.375 5.94822 11.0646 5.99512 10.0276C6.03879 9.06932 6.19969 8.5493 6.33345 8.20228C6.51222 7.74337 6.72513 7.41593 7.06913 7.07166C7.41313 6.7274 7.74045 6.5143 8.20043 6.33642C8.54664 6.20148 9.06799 6.04185 10.0269 5.99829C11.0636 5.95064 11.375 5.94112 14.0004 5.94112C16.6257 5.94112 16.9374 5.95142 17.975 5.99829C18.9339 6.04193 19.4542 6.20274 19.8015 6.33642C20.2607 6.5143 20.5883 6.72787 20.9328 7.07166C21.2772 7.41546 21.4897 7.74337 21.6685 8.20228C21.8035 8.54828 21.9632 9.06932 22.0068 10.0276C22.0545 11.0646 22.064 11.375 22.064 13.9999C22.064 16.6248 22.0545 16.9352 22.0068 17.9722C21.9631 18.9305 21.8026 19.4514 21.6685 19.7975C21.4897 20.2565 21.2768 20.5839 20.9328 20.9274C20.5888 21.2709 20.2607 21.484 19.8015 21.6626C19.4553 21.7976 18.9339 21.9572 17.975 22.0008C16.9383 22.0484 16.6269 22.0579 14.0004 22.0579C11.3739 22.0579 11.0633 22.0484 10.0269 22.0008ZM9.94546 4.22994C8.89843 4.27759 8.18297 4.44351 7.55815 4.68649C6.91106 4.93742 6.36327 5.27406 5.81588 5.82026C5.26848 6.36646 4.93251 6.91479 4.68143 7.56148C4.4383 8.18632 4.27228 8.90096 4.2246 9.94736C4.17613 10.9954 4.16504 11.3305 4.16504 13.9998C4.16504 16.6692 4.17613 17.0043 4.2246 18.0523C4.27228 19.0988 4.4383 19.8134 4.68143 20.4382C4.93251 21.0845 5.26856 21.6334 5.81588 22.1794C6.36319 22.7254 6.91106 23.0615 7.55815 23.3132C8.18415 23.5562 8.89843 23.7221 9.94546 23.7697C10.9947 23.8174 11.3294 23.8293 14.0004 23.8293C16.6713 23.8293 17.0066 23.8182 18.0553 23.7697C19.1024 23.7221 19.8174 23.5562 20.4426 23.3132C21.0893 23.0615 21.6375 22.7256 22.1848 22.1794C22.7322 21.6332 23.0675 21.0845 23.3193 20.4382C23.5624 19.8134 23.7292 19.0987 23.7761 18.0523C23.8238 17.0035 23.8349 16.6692 23.8349 13.9998C23.8349 11.3305 23.8238 10.9954 23.7761 9.94736C23.7284 8.90088 23.5624 8.18593 23.3193 7.56148C23.0675 6.91518 22.7314 6.36733 22.1848 5.82026C21.6383 5.27319 21.0893 4.93742 20.4434 4.68649C19.8174 4.44351 19.1023 4.2768 18.0561 4.22994C17.0074 4.18228 16.6721 4.17041 14.0011 4.17041C11.3302 4.17041 10.9947 4.1815 9.94546 4.22994Z" fill="white"/>
<path d="M10.7224 13.9998C10.7224 12.1904 12.1898 10.7231 14.0004 10.7231C15.8109 10.7231 17.2791 12.1904 17.2791 13.9998C17.2791 15.8093 15.8109 17.2766 14.0004 17.2766C12.1898 17.2766 10.7224 15.8093 10.7224 13.9998ZM8.95004 13.9998C8.95004 16.7875 11.2111 19.0471 14.0004 19.0471C16.7897 19.0471 19.0507 16.7875 19.0507 13.9998C19.0507 11.2122 16.7897 8.95254 14.0004 8.95254C11.2111 8.95254 8.95004 11.2122 8.95004 13.9998ZM18.0704 8.75242C18.0703 8.98571 18.1394 9.21378 18.269 9.40781C18.3986 9.60183 18.5829 9.75309 18.7985 9.84245C19.0141 9.93181 19.2514 9.95527 19.4804 9.90985C19.7094 9.86443 19.9197 9.75217 20.0848 9.58728C20.25 9.42238 20.3625 9.21225 20.4081 8.98347C20.4537 8.75468 20.4304 8.5175 20.3412 8.30194C20.2519 8.08637 20.1007 7.90209 19.9067 7.77241C19.7127 7.64272 19.4845 7.57345 19.2511 7.57336H19.2506C18.9377 7.5735 18.6377 7.69776 18.4164 7.91883C18.1951 8.1399 18.0706 8.43971 18.0704 8.75242ZM10.0269 22.0008C9.06799 21.9571 8.54679 21.7975 8.20043 21.6626C7.74124 21.484 7.41361 21.2712 7.06913 20.9274C6.72466 20.5836 6.51143 20.2565 6.33345 19.7975C6.19843 19.4515 6.03871 18.9305 5.99512 17.9722C5.94744 16.9361 5.93792 16.6248 5.93792 13.9999C5.93792 11.375 5.94822 11.0646 5.99512 10.0276C6.03879 9.06932 6.19969 8.5493 6.33345 8.20228C6.51222 7.74337 6.72513 7.41593 7.06913 7.07166C7.41313 6.7274 7.74045 6.5143 8.20043 6.33642C8.54664 6.20148 9.06799 6.04185 10.0269 5.99829C11.0636 5.95064 11.375 5.94112 14.0004 5.94112C16.6257 5.94112 16.9374 5.95142 17.975 5.99829C18.9339 6.04193 19.4542 6.20274 19.8015 6.33642C20.2607 6.5143 20.5883 6.72787 20.9328 7.07166C21.2772 7.41546 21.4897 7.74337 21.6685 8.20228C21.8035 8.54828 21.9632 9.06932 22.0068 10.0276C22.0545 11.0646 22.064 11.375 22.064 13.9999C22.064 16.6248 22.0545 16.9352 22.0068 17.9722C21.9631 18.9305 21.8026 19.4514 21.6685 19.7975C21.4897 20.2565 21.2768 20.5839 20.9328 20.9274C20.5888 21.2709 20.2607 21.484 19.8015 21.6626C19.4553 21.7976 18.9339 21.9572 17.975 22.0008C16.9383 22.0484 16.6269 22.0579 14.0004 22.0579C11.3739 22.0579 11.0633 22.0484 10.0269 22.0008ZM9.94546 4.22994C8.89843 4.27759 8.18297 4.44351 7.55815 4.68649C6.91106 4.93742 6.36327 5.27406 5.81588 5.82026C5.26848 6.36646 4.93251 6.91479 4.68143 7.56148C4.4383 8.18632 4.27228 8.90096 4.2246 9.94736C4.17613 10.9954 4.16504 11.3305 4.16504 13.9998C4.16504 16.6692 4.17613 17.0043 4.2246 18.0523C4.27228 19.0988 4.4383 19.8134 4.68143 20.4382C4.93251 21.0845 5.26856 21.6334 5.81588 22.1794C6.36319 22.7254 6.91106 23.0615 7.55815 23.3132C8.18415 23.5562 8.89843 23.7221 9.94546 23.7697C10.9947 23.8174 11.3294 23.8293 14.0004 23.8293C16.6713 23.8293 17.0066 23.8182 18.0553 23.7697C19.1024 23.7221 19.8174 23.5562 20.4426 23.3132C21.0893 23.0615 21.6375 22.7256 22.1848 22.1794C22.7322 21.6332 23.0675 21.0845 23.3193 20.4382C23.5624 19.8134 23.7292 19.0987 23.7761 18.0523C23.8238 17.0035 23.8349 16.6692 23.8349 13.9998C23.8349 11.3305 23.8238 10.9954 23.7761 9.94736C23.7284 8.90088 23.5624 8.18593 23.3193 7.56148C23.0675 6.91518 22.7314 6.36733 22.1848 5.82026C21.6383 5.27319 21.0893 4.93742 20.4434 4.68649C19.8174 4.44351 19.1023 4.2768 18.0561 4.22994C17.0074 4.18228 16.6721 4.17041 14.0011 4.17041C11.3302 4.17041 10.9947 4.1815 9.94546 4.22994Z" fill="white"/>
</svg>
