<svg width="28" height="28" viewBox="0 0 28 28" fill="none" xmlns="http://www.w3.org/2000/svg">
<path d="M4.25684 5.6659C4.25684 4.88814 4.90797 4.25684 5.71062 4.25684H22.4737C23.2767 4.25684 23.9275 4.88814 23.9275 5.6659V22.5186C23.9275 23.2966 23.2767 23.9275 22.4737 23.9275H5.71062C4.90804 23.9275 4.25684 23.2967 4.25684 22.5189V5.66567V5.6659Z" fill="white"/>
<path d="M10.2342 20.7185V11.8627H7.29069V20.7185H10.2342ZM8.76307 10.6538C9.78932 10.6538 10.4282 9.97382 10.4282 9.12399C10.409 8.25479 9.78932 7.59375 8.78258 7.59375C7.77516 7.59375 7.11719 8.25479 7.11719 9.12391C7.11719 9.97374 7.75587 10.6538 8.74378 10.6538L8.76307 10.6538ZM11.8635 20.7185H14.8068V15.7736C14.8068 15.5093 14.826 15.2442 14.9038 15.0555C15.1165 14.5264 15.6008 13.9788 16.4141 13.9788C17.4789 13.9788 17.9052 14.7908 17.9052 15.9814V20.7185H20.8484V15.6409C20.8484 12.9209 19.3964 11.6551 17.4599 11.6551C15.8722 11.6551 15.1749 12.5425 14.7874 13.1469H14.807V11.863H11.8637C11.9021 12.6938 11.8635 20.7185 11.8635 20.7185Z" fill="#37393E"/>
</svg>
