<svg width="22" height="14" viewBox="0 0 22 14" fill="none" xmlns="http://www.w3.org/2000/svg">
<g clip-path="url(#clip0_454_1128)">
<path d="M0 7.66661C0.00326044 5.98049 0.657358 4.36458 1.81875 3.1735C2.98013 1.98242 4.55393 1.31347 6.19474 1.31348C7.00594 1.31389 7.8091 1.4786 8.55832 1.79817C9.30753 2.11775 9.98811 2.58593 10.5611 3.17596C11.1342 3.76599 11.5884 4.46628 11.8979 5.23682C12.2074 6.00735 12.3661 6.83302 12.3649 7.66661V13.8363H10.0138V11.8883C9.43521 13.0963 7.89961 14.0324 6.19474 14.0324C5.38124 14.0324 4.5757 13.8677 3.82412 13.5478C3.07254 13.2279 2.38963 12.759 1.8144 12.1679C0.652659 10.9741 0 9.35492 0 7.66661ZM10.0353 7.66661C10.0353 5.42135 8.42892 3.64412 6.21936 3.64412C5.70606 3.63891 5.19697 3.73975 4.72233 3.94066C4.24769 4.14156 3.81717 4.43843 3.45635 4.81364C3.09553 5.18885 2.81177 5.63474 2.6219 6.12483C2.43204 6.61493 2.33995 7.13923 2.35111 7.66661C2.34208 8.19341 2.43562 8.71675 2.62624 9.20586C2.81686 9.69497 3.10071 10.14 3.4611 10.5148C3.8215 10.8895 4.25116 11.1865 4.72484 11.3881C5.19852 11.5898 5.70665 11.6921 6.21936 11.6891C6.72936 11.691 7.23452 11.5875 7.70481 11.3848C8.17509 11.182 8.6009 10.8842 8.9569 10.5089C9.3129 10.1336 9.59183 9.68861 9.77709 9.20033C9.96235 8.71205 10.0502 8.19047 10.0353 7.66661Z" fill="white"/>
<path d="M15.3678 3.79882C15.5178 2.35086 16.7584 1.34808 18.2619 1.34808C19.8828 1.34808 21.1527 2.38149 21.1527 3.95064H21.1524L21.153 3.96435C21.1759 4.45877 21.0571 4.94874 20.8122 5.37354C20.5674 5.79827 20.2075 6.13869 19.7781 6.35387L19.1624 6.66244L19.8093 6.89889C20.4536 7.13442 20.9846 7.49854 21.3552 8.00452C21.7247 8.509 21.9498 9.17489 21.9498 10.0413C21.9498 12.0749 20.305 13.5578 18.308 13.5578C16.3928 13.5578 14.7417 12.2782 14.5807 10.4335H15.7003C15.8642 11.6879 17.0571 12.4574 18.2619 12.4574C19.0174 12.4574 19.6652 12.2048 20.1238 11.7308C20.5815 11.2577 20.8241 10.5918 20.8241 9.81362C20.8241 8.96851 20.5202 8.27653 19.992 7.79822C19.4674 7.32322 18.7468 7.08132 17.948 7.08132H17.8267V6.2244H17.8772C18.9823 6.2244 20.0394 5.50726 20.0394 4.27953C20.0394 3.76319 19.8816 3.29267 19.5712 2.94744C19.2576 2.59876 18.8086 2.40106 18.2772 2.40106C17.265 2.40106 16.6274 3.05526 16.4927 3.79882H15.3678Z" fill="#85FFDA" stroke="#85FFDA" stroke-width="0.594595"/>
</g>
<defs>
<clipPath id="clip0_454_1128">
<rect width="22" height="13.1165" fill="white" transform="translate(0 0.883301)"/>
</clipPath>
</defs>
</svg>
