<svg width="100" height="19" viewBox="0 0 100 19" fill="none" xmlns="http://www.w3.org/2000/svg">
<g clip-path="url(#clip0_454_1060)">
<path d="M0 7.20562C0.00347055 5.41451 0.69972 3.69797 1.93595 2.43271C3.17218 1.16746 4.84739 0.45686 6.59395 0.456863C7.45742 0.457304 8.31234 0.632265 9.10983 0.971743C9.90733 1.31122 10.6318 1.80856 11.2417 2.43533C11.8517 3.0621 12.3352 3.806 12.6646 4.62452C12.9941 5.44304 13.163 6.32012 13.1617 7.20562V13.7595H10.6591V11.6902C10.0432 12.9735 8.40867 13.9678 6.59395 13.9678C5.72802 13.9678 4.87057 13.7929 4.07055 13.4531C3.27054 13.1132 2.54363 12.6151 1.93132 11.9872C0.694718 10.7191 0 8.99907 0 7.20562ZM10.682 7.20562C10.682 4.82055 8.97209 2.93264 6.62015 2.93264C6.07377 2.92711 5.53187 3.03423 5.02664 3.24764C4.52142 3.46106 4.06316 3.77642 3.67909 4.17499C3.29502 4.57356 2.99296 5.04722 2.79086 5.56784C2.58877 6.08845 2.49074 6.6454 2.50262 7.20562C2.49301 7.76523 2.59258 8.32116 2.79548 8.84073C2.99839 9.3603 3.30053 9.83303 3.68415 10.2311C4.06776 10.6292 4.52512 10.9447 5.02932 11.1589C5.53352 11.3731 6.0744 11.4818 6.62015 11.4786C7.16301 11.4806 7.70073 11.3707 8.20132 11.1553C8.70191 10.94 9.15516 10.6235 9.5341 10.2249C9.91304 9.82625 10.2099 9.35353 10.4071 8.83485C10.6043 8.31616 10.6978 7.7621 10.682 7.20562Z" fill="white"/>
<path d="M20.2406 0.456863C21.9875 0.456858 23.663 1.16735 24.8998 2.43251C26.1365 3.69767 26.8335 5.4142 26.8378 7.20562C26.837 8.99938 26.1415 10.7194 24.9044 11.9874C23.6673 13.2555 21.9897 13.9678 20.2406 13.9678C19.4729 13.9826 18.7118 13.821 18.0129 13.4949C17.314 13.1688 16.6952 12.6865 16.2017 12.0833V19.0034H13.6729V7.20562C13.6716 6.32012 13.8405 5.44304 14.1699 4.62452C14.4994 3.806 14.9829 3.0621 15.5928 2.43533C16.2028 1.80856 16.9272 1.31122 17.7247 0.971743C18.5222 0.632265 19.3771 0.457304 20.2406 0.456863ZM24.3319 7.20562C24.3469 6.64683 24.2519 6.09067 24.0526 5.57038C23.8532 5.05009 23.5536 4.57636 23.1717 4.17749C22.7898 3.77862 22.3334 3.46281 21.8298 3.24892C21.3262 3.03503 20.7857 2.92746 20.2406 2.93264C19.6963 2.92978 19.157 3.03896 18.6546 3.2537C18.1522 3.46844 17.6969 3.78439 17.3157 4.18283C16.9345 4.58127 16.6351 5.0541 16.4354 5.57332C16.2356 6.09254 16.1394 6.6476 16.1525 7.20562C16.1416 7.76304 16.2394 8.31708 16.44 8.83527C16.6406 9.35346 16.94 9.82537 17.3208 10.2233C17.7015 10.6213 18.1559 10.9373 18.6573 11.1529C19.1586 11.3684 19.6969 11.4792 20.2406 11.4786C20.785 11.4815 21.3245 11.3723 21.8271 11.1576C22.3297 10.9429 22.7852 10.627 23.1666 10.2286C23.5481 9.83022 23.8477 9.35742 24.0479 8.83818C24.2481 8.31894 24.3446 7.76381 24.3319 7.20562Z" fill="white"/>
<path d="M33.7818 0.456867C35.5295 0.455083 37.2064 1.1649 38.4441 2.43034C39.6817 3.69579 40.3789 5.41335 40.3823 7.20563C40.3823 8.09422 40.2116 8.9741 39.8798 9.79496C39.548 10.6158 39.0617 11.3616 38.4487 11.9896C37.8357 12.6176 37.108 13.1156 36.3072 13.455C35.5065 13.7945 34.6483 13.9687 33.7818 13.9678C33.0141 13.9828 32.2529 13.8214 31.554 13.4953C30.8551 13.1691 30.2363 12.6867 29.7429 12.0833V19.0034H27.2305V7.20563C27.2287 5.42043 27.9175 3.7074 29.1456 2.44224C30.3738 1.17708 32.0411 0.463092 33.7818 0.456867ZM37.8764 7.20563C37.8914 6.64655 37.7963 6.0901 37.5968 5.56959C37.3972 5.04908 37.0974 4.57519 36.7151 4.17627C36.3328 3.77736 35.876 3.46161 35.372 3.24793C34.868 3.03424 34.3272 2.92701 33.7818 2.93265C33.2379 2.9307 32.6992 3.04052 32.1974 3.25563C31.6955 3.47073 31.2408 3.78676 30.8601 4.18506C30.4793 4.58336 30.1802 5.05585 29.9805 5.57464C29.7807 6.09343 29.6844 6.64801 29.6971 7.20563C29.6866 7.76264 29.7845 8.3162 29.9851 8.83397C30.1856 9.35173 30.4848 9.8233 30.8651 10.2211C31.2454 10.619 31.6992 10.9351 32.2 11.151C32.7008 11.3669 33.2386 11.4783 33.7818 11.4786C34.3267 11.4824 34.8667 11.3739 35.3699 11.1595C35.873 10.9452 36.3291 10.6294 36.711 10.2309C37.0929 9.83232 37.3928 9.35918 37.593 8.83951C37.7932 8.31984 37.8896 7.76422 37.8764 7.20563Z" fill="white"/>
<path d="M40.6377 7.20561C40.6373 6.3181 40.8076 5.43922 41.139 4.61934C41.4704 3.79947 41.9563 3.05472 42.5689 2.42777C43.1814 1.80083 43.9086 1.30402 44.7087 0.965807C45.5089 0.627599 46.3662 0.454643 47.2317 0.456853C48.556 0.450779 49.8501 0.862712 50.9383 1.63675C52.0265 2.41078 52.8561 3.50943 53.3146 4.78359H50.6318C50.264 4.21256 49.7624 3.74519 49.173 3.4242C48.5836 3.1032 47.9252 2.93882 47.2579 2.94607C46.7126 2.94058 46.1718 3.04729 45.6675 3.25988C45.1631 3.47246 44.7055 3.78661 44.3216 4.18374C43.9377 4.58087 43.6354 5.05292 43.4325 5.57197C43.2296 6.09101 43.1302 6.64651 43.1403 7.20561C43.1307 7.76522 43.2303 8.32115 43.4332 8.84072C43.6361 9.36029 43.9382 9.83302 44.3219 10.2311C44.7055 10.6292 45.1628 10.9447 45.667 11.1589C46.1712 11.3731 46.7121 11.4818 47.2579 11.4786C47.9123 11.4889 48.5588 11.3314 49.1389 11.0205C49.7189 10.7096 50.2141 10.2551 50.5794 9.69819H53.3146C52.8463 10.9611 52.0126 12.047 50.9253 12.8102C49.838 13.5733 48.5492 13.9773 47.2317 13.9678C46.3651 13.97 45.5067 13.7966 44.7057 13.4576C43.9047 13.1185 43.177 12.6205 42.5642 11.9922C41.9515 11.3638 41.4659 10.6174 41.1353 9.79602C40.8046 8.97459 40.6356 8.09426 40.6377 7.20561Z" fill="white"/>
<path d="M66.7846 7.20562C66.7868 8.09426 66.6177 8.97459 66.2871 9.79602C65.9564 10.6174 65.4708 11.3638 64.8581 11.9922C64.2454 12.6205 63.5176 13.1185 62.7166 13.4576C61.9156 13.7966 61.0572 13.97 60.1906 13.9678C59.3241 13.97 58.4657 13.7966 57.6647 13.4576C56.8637 13.1185 56.1359 12.6205 55.5232 11.9922C54.9105 11.3638 54.4248 10.6174 54.0942 9.79602C53.7636 8.97459 53.5945 8.09426 53.5967 7.20562C53.5963 6.3181 53.7666 5.43922 54.098 4.61934C54.4294 3.79947 54.9153 3.05472 55.5279 2.42777C56.1404 1.80083 56.8676 1.30402 57.6677 0.965808C58.4679 0.627599 59.3252 0.454644 60.1906 0.456854C61.0561 0.454644 61.9134 0.627599 62.7136 0.965808C63.5137 1.30402 64.2409 1.80083 64.8534 2.42777C65.466 3.05472 65.9519 3.79947 66.2833 4.61934C66.6147 5.43922 66.785 6.3181 66.7846 7.20562ZM56.0993 7.20562C56.0897 7.76522 56.1893 8.32115 56.3922 8.84072C56.5951 9.36029 56.8972 9.83302 57.2808 10.2311C57.6645 10.6292 58.1218 10.9447 58.626 11.1589C59.1302 11.3731 59.6711 11.4818 60.2169 11.4786C60.7597 11.4806 61.2974 11.3707 61.798 11.1553C62.2986 10.9399 62.7519 10.6235 63.1308 10.2249C63.5097 9.82625 63.8066 9.35353 64.0038 8.83484C64.201 8.31615 64.2945 7.76209 64.2787 7.20562C64.2787 4.82054 62.5688 2.93263 60.2169 2.93263C59.6705 2.9271 59.1286 3.03422 58.6233 3.24764C58.1181 3.46105 57.6599 3.77641 57.2758 4.17498C56.8917 4.57355 56.5897 5.04721 56.3876 5.56783C56.1855 6.08844 56.0874 6.6454 56.0993 7.20562Z" fill="white"/>
<path d="M86.8483 6.86634V13.7596H84.3456V6.86634C84.3456 4.17893 83.245 2.93264 81.3025 2.93264C79.3601 2.93264 78.2627 4.19237 78.2627 6.86634V13.7596H75.7568V6.86634C75.7568 4.17893 74.6562 2.93264 72.7137 2.93264C70.7712 2.93264 69.6739 4.19237 69.6739 6.86634V13.7596H67.168V6.86634C67.168 2.47242 69.5199 0.456863 72.7137 0.456863C74.5546 0.456863 76.1663 1.24293 77.0081 2.89569C77.8532 1.24293 79.4616 0.456863 81.3025 0.456863C84.4996 0.456863 86.8483 2.47242 86.8483 6.86634Z" fill="white"/>
<path d="M91.3428 9.82921H93.1608C93.1608 11.1225 94.3302 11.9791 95.5913 11.9791C97.0556 11.9791 98.0022 11.0083 98.0022 9.48656C98.0022 7.8506 96.8328 6.89993 95.2572 6.89993H94.8117V5.35802H95.1819C96.2399 5.35802 97.1669 4.68617 97.1669 3.60785C97.1669 2.63702 96.574 1.92822 95.6077 1.92822C94.5693 1.92822 93.9961 2.67062 93.9961 3.41301H92.1781C92.1781 1.50831 93.734 0.17804 95.5913 0.17804C97.4486 0.17804 98.9849 1.3773 98.9849 3.25848C99.012 3.8435 98.8713 4.42383 98.5802 4.92772C98.2891 5.43162 97.8604 5.83698 97.3471 6.0937C98.8113 6.62783 99.8333 7.77334 99.8333 9.72843C99.8333 12.0799 97.9236 13.7797 95.6405 13.7797C93.3573 13.7797 91.3428 12.1673 91.3428 9.82921Z" fill="#85FFDA"/>
<path d="M95.6269 13.9678C93.1242 13.9678 91.1621 12.1505 91.1621 9.82921V9.64445H93.3404V9.82921C93.3404 11.0587 94.4837 11.7944 95.5908 11.7944C96.9666 11.7944 97.8216 10.9109 97.8216 9.48656C97.8216 8.06223 96.8159 7.08133 95.2567 7.08133H94.6311V5.17663H95.1814C96.0789 5.17663 96.9896 4.63578 96.9896 3.60785C96.9896 2.70421 96.4458 2.11969 95.6072 2.11969C94.6671 2.11969 94.1725 2.77139 94.1725 3.41973V3.60113H91.9974V3.41973C91.9974 1.47136 93.5435 0 95.6007 0C97.6578 0 99.1744 1.37394 99.1744 3.26521C99.1978 3.82014 99.0777 4.37155 98.8263 4.86355C98.5749 5.35556 98.2012 5.77067 97.743 6.06683C99.2268 6.73868 100.01 7.99169 100.01 9.73515C99.9999 12.1101 98.0771 13.9678 95.6269 13.9678ZM91.5257 10.014C91.6273 12.0295 93.3929 13.6017 95.6269 13.6017C97.8609 13.6017 99.6396 11.9019 99.6396 9.73515C99.6396 8.032 98.8239 6.8361 97.2745 6.27511L96.9011 6.13738L97.2483 5.93918C97.7374 5.69843 98.1462 5.31497 98.4236 4.83689C98.701 4.35881 98.8345 3.80739 98.8075 3.25177C98.8075 1.35042 97.1894 0.356081 95.5908 0.356081C93.8121 0.356081 92.456 1.5755 92.361 3.22154H93.8285C93.8872 2.78936 94.1032 2.39599 94.4332 2.12054C94.7632 1.84508 95.1827 1.70795 95.6072 1.73674C96.6489 1.73674 97.3466 2.48585 97.3466 3.59441C97.3466 4.70297 96.436 5.52935 95.1814 5.52935H94.9914V6.70173H95.2567C97.0059 6.70173 98.1819 7.81701 98.1819 9.47312C98.1819 11.1292 97.1632 12.1605 95.5908 12.1605C94.3625 12.1605 93.0948 11.361 92.9867 10.014H91.5257Z" fill="#85FFDA"/>
</g>
<defs>
<clipPath id="clip0_454_1060">
<rect width="100" height="19" fill="white"/>
</clipPath>
</defs>
</svg>
