<svg width="150" height="48" viewBox="0 0 150 48" fill="none" xmlns="http://www.w3.org/2000/svg">
<path d="M15.7348 25.0975L10.5501 11.4729H1.69238V36.1666H8.06877V19.8398L14.3222 36.1666H17.1355L23.3639 19.8398V36.1666H29.7283V11.4729H20.8825L15.7348 25.0975Z" fill="#00AEEF"/>
<path d="M39.9131 17.8374C37.1738 17.8374 34.1026 18.6482 31.8051 20.6137L33.9186 24.5697C35.3562 23.353 37.1378 22.6412 38.9183 22.6412C41.2158 22.6412 42.5544 23.7099 42.5544 25.2705V27.0521C41.4857 25.7254 39.3722 24.9386 37.0018 24.9386C34.2625 24.9386 30.8594 26.3882 30.8594 30.7131C30.8594 34.7181 34.2625 36.5977 37.0018 36.5977C39.2992 36.5977 41.4487 35.7009 42.5544 34.3742V36.1558H48.255V24.9746C48.243 19.434 44.201 17.8374 39.9131 17.8374ZM42.5424 31.5719C41.9526 32.4317 40.6139 32.8746 39.3602 32.8746C37.8856 32.8746 36.5099 32.2108 36.5099 30.7981C36.5099 29.3855 37.8856 28.7216 39.3602 28.7216C40.6259 28.7216 41.9526 29.1275 42.5424 29.9873V31.5719Z" fill="#00AEEF"/>
<path d="M54.79 23.5007C54.79 22.8009 55.6747 22.2841 57.0134 22.2841C59.1638 22.2841 61.2023 23.2058 62.2721 24.2496L64.4585 20.2076C62.53 18.7949 60.0116 17.8362 56.9764 17.8362C52.0496 17.8362 49.3103 20.5755 49.3103 23.7207C49.3103 30.9819 59.7157 28.6844 59.7157 30.9079C59.7157 31.6817 59.0159 32.1735 57.3073 32.1735C55.1939 32.1735 52.3436 30.9569 51.0169 29.7652L48.6455 33.8321C50.537 35.5397 53.8302 36.6084 57.0484 36.6084C62.1591 36.6084 65.1563 34.164 65.1563 30.7609C65.1593 23.4268 54.79 25.4662 54.79 23.5007Z" fill="#00AEEF"/>
<path d="M77.7892 17.8373C74.7919 17.8373 72.6785 19.2009 71.6097 20.4666V11.4729H65.9092V36.1786H71.6097V24.6306C72.2736 23.8198 73.3913 22.886 75.0499 22.886C76.8684 22.886 78.0111 23.5858 78.0111 25.7733V36.1786H83.7117V23.4269C83.7107 20.1347 81.8551 17.8373 77.7892 17.8373Z" fill="#00AEEF"/>
<path d="M93.6006 17.8374C90.8613 17.8374 87.7901 18.6482 85.4926 20.6137L87.6061 24.5697C89.0437 23.353 90.8253 22.6412 92.6058 22.6412C94.9032 22.6412 96.2419 23.7099 96.2419 25.2705V27.0521C95.1732 25.7254 93.0597 24.9386 90.6893 24.9386C87.95 24.9386 84.5469 26.3882 84.5469 30.7131C84.5469 34.7181 87.95 36.5977 90.6893 36.5977C92.9867 36.5977 95.1362 35.7009 96.2419 34.3742V36.1558H101.942V24.9746C101.93 19.434 97.9005 17.8374 93.6006 17.8374ZM96.2299 31.5719C95.6401 32.4317 94.3014 32.8746 93.0477 32.8746C91.5731 32.8746 90.1974 32.2108 90.1974 30.7981C90.1974 29.3855 91.5731 28.7216 93.0477 28.7216C94.3134 28.7216 95.6401 29.1275 96.2299 29.9873V31.5719Z" fill="#00AEEF"/>
<path d="M114.891 17.8373C112.925 17.8373 110.997 18.6111 109.596 20.3926V11.4729H103.896V36.1786H109.596V34.1022C111.083 35.8097 112.888 36.6205 114.891 36.6205C119.302 36.6205 122.778 33.2914 122.778 27.2099C122.778 21.3504 119.375 17.8373 114.891 17.8373ZM112.999 31.5718C111.783 31.5718 110.297 30.945 109.596 29.9872V24.5076C110.296 23.5488 111.783 22.874 112.999 22.874C115.26 22.874 116.955 24.5446 116.955 27.2109C116.967 29.9132 115.26 31.5718 112.999 31.5718Z" fill="#00AEEF"/>
<path d="M129.142 11.4729H123.441V36.1786H129.142V11.4729Z" fill="#00AEEF"/>
<path d="M148.59 27.8009C148.59 21.7314 144.745 17.8374 139.438 17.8374C133.848 17.8374 129.953 22.0263 129.953 27.211C129.953 33.0216 134.179 36.6216 139.696 36.6216C142.435 36.6216 145.396 35.8478 147.178 34.2502L144.696 30.5152C143.665 31.4739 141.588 32.0388 140.323 32.0388C137.73 32.0388 136.256 30.7001 135.851 29.1145H148.59C148.59 29.1155 148.59 27.8009 148.59 27.8009ZM135.777 25.2085C135.998 23.9059 136.956 22.4322 139.438 22.4322C142.067 22.4322 142.988 23.9429 143.136 25.2085H135.777Z" fill="#00AEEF"/>
</svg>
