<svg width="150" height="48" viewBox="0 0 150 48" fill="none" xmlns="http://www.w3.org/2000/svg">
<path d="M42.0945 16.9905C41.3797 17.0615 38.4025 17.7283 37.4027 17.9422C36.331 18.2272 26.5435 25.7892 25.9006 27.6458C25.7577 28.2886 25.6867 29.2774 25.6867 30.2061L25.6147 31.7067C25.6147 32.7775 25.9126 34.504 26.0546 35.4328C26.6984 35.5758 31.3553 35.4508 32.212 35.5938L32.1071 37.5143C31.2693 37.4533 25.3558 37.4673 21.9776 37.4673C20.2631 37.4673 14.7495 37.6562 13.0559 37.6053L13.3758 35.7787C14.3046 35.7067 18.1506 35.9447 18.9954 35.0519C19.4153 34.609 19.2813 34.1341 19.2813 31.5628V30.3491C19.2813 29.7772 19.2813 28.7055 19.1383 27.7048C18.7814 26.633 10.1606 15.8688 7.94618 14.1552C7.30235 13.9412 3.27337 13.5383 2.27362 13.3234L2.22363 11.6778C2.72251 11.4279 7.20337 11.7388 11.5513 11.5778C14.4095 11.4719 20.9299 11.5778 21.7337 11.6738L21.5277 13.1234C20.671 13.3384 16.542 13.4174 15.4703 13.7033C18.2566 17.8473 22.6625 23.1809 24.0911 25.2534C24.8769 24.1107 31.7841 19.3589 31.9981 17.7163C30.9264 17.5013 27.3783 16.9905 26.8064 16.9905L26.4675 15.1199C27.4402 14.968 32.555 15.1199 35.0973 15.1199C37.2918 15.1199 41.9806 15.1199 43.3132 15.2289L42.0945 16.9905Z" fill="#7B0099"/>
<path d="M45.0794 22.3911L45.0344 22.1072C44.2236 23.9987 42.8479 26.971 42.578 27.6908L47.0129 27.6888C46.472 26.2931 45.4853 23.5618 45.0794 22.3911ZM56.8564 36.7145C56.5415 36.6685 52.9624 36.6695 51.6567 36.6695C50.8909 36.6695 46.9919 36.6465 46.3161 36.6465L46.519 34.9739C47.4208 34.929 49.0953 34.5641 49.8612 34.4741C49.3663 33.3494 47.7317 29.7753 47.3718 29.1004C46.426 29.1004 43.0249 29.2074 42.0791 29.3874C41.8992 29.7023 40.6085 30.969 40.3836 32.6795C41.0144 32.8145 42.2231 33.0744 42.9439 33.1644L42.678 34.874C41.9132 34.829 38.8599 34.919 38.1391 34.874C37.4633 34.874 34.3261 34.881 33.7402 34.9709L34.2981 33.1634C35.0179 33.0734 36.6785 32.5576 37.3083 32.4236C38.2541 31.0729 42.634 22.5131 42.9939 21.7013C42.408 21.5663 41.4133 21.0955 40.7825 21.0055L40.6955 19.7688C41.4613 19.8148 45.2663 19.9288 45.6702 19.9088C46.576 19.8648 49.9361 19.8808 50.7019 19.8368L50.418 21.0515C49.7432 21.0955 48.6445 21.4254 48.0136 21.5603C48.3285 22.5061 49.5832 25.5543 50.529 27.8058C51.2498 29.4274 52.4455 32.6045 53.5712 34.4511C54.336 34.586 56.0926 35.1019 56.9034 35.1459L56.9494 35.5968L56.8564 36.7145Z" fill="#7B0099"/>
<path d="M83.2334 32.0806C82.6125 32.0326 79.6243 32.0366 78.0967 32.0806C76.871 32.1156 73.9597 31.9697 72.5741 32.0296L72.4681 30.3321C72.946 30.2841 75.9272 30.0811 76.4991 29.9852C76.69 29.0784 76.5991 27.7907 76.5991 26.693L76.5251 24.6935C74.9965 24.6935 64.892 25.2194 64.4621 25.2664L63.7243 25.3623C63.7243 28.0856 63.8673 28.9464 64.0592 29.9502C64.872 30.0921 67.7863 30.2841 68.4071 30.3801L68.3691 32.2306C67.6523 32.1826 63.1705 32.2306 61.7838 32.2306C60.1122 32.2306 56.0463 32.1946 55.0905 32.2426L55.2205 30.3321C55.9853 30.2841 58.8746 29.9992 59.4964 29.9042C59.5924 28.6605 59.6394 26.703 59.6394 24.6485V22.1162C59.6394 21.2564 59.5914 18.772 59.5434 17.9112C58.9225 17.8172 56.0323 17.6233 55.1725 17.5753L55.0195 16.1287C55.5924 16.1777 59.5824 16.0677 61.6838 16.0677C63.6433 16.0677 68.0842 16.1067 68.6101 16.0577L68.4541 17.5743C67.5464 17.6223 64.5361 17.8612 64.0113 17.9562C63.8673 18.674 63.7243 19.2949 63.7243 21.5873L63.6543 22.783C64.5141 22.783 75.1724 22.741 76.5001 22.552V20.9055C76.5001 18.804 76.826 16.5306 76.5881 15.9087C76.0622 15.7658 73.2149 15.3649 72.3062 15.3169L72.4331 13.7913C73.007 13.8392 75.6913 13.8233 77.6968 13.8712C79.7993 13.8712 82.8535 13.9572 83.4743 13.8622L83.3334 15.1179C82.7125 15.1659 79.9422 15.8667 79.9422 15.8667C79.9422 15.8667 79.7533 17.1754 79.8922 19.0589C80.0072 20.6225 80.0422 23.6978 80.0422 23.6978C80.1212 27.1219 80.3331 29.8892 80.1422 30.0331C79.9122 30.2041 82.3356 30.3521 83.0034 30.448L83.2654 30.9019L83.2334 32.0806Z" fill="#7B0099"/>
<path d="M104.035 24.4974C104.208 19.6687 100.429 18.383 95.6539 18.7109C93.1555 18.8829 88.0718 20.2035 88.0718 24.4974C88.0718 28.7414 91.9718 31.0398 97.1745 30.5859C101.201 30.236 103.315 28.7524 103.834 26.6919L104.035 24.4974ZM107.876 24.0985C108.103 29.9341 102.774 32.8283 95.8538 32.8283C92.9736 32.8283 89.4685 32.2795 86.4752 30.4839C84.1408 29.0823 83.7539 27.2657 83.7539 24.9923C83.7539 20.2935 88.8696 16.3985 96.7006 16.4485C99.6809 16.4485 102.554 16.9034 104.877 18.7139C106.949 20.3305 107.299 21.1323 107.677 22.9008L107.876 24.0985Z" fill="#7B0099"/>
<path d="M140.666 33.9271L139.008 33.7851L138.99 30.195L141.089 30.457L142.969 30.544L142.447 34.0601L140.666 33.9271ZM142.801 27.5847L139.708 27.2848C140.033 25.7202 139.75 13.7122 139.725 12.4315L139.566 9.90918C140.428 10.0791 140.297 9.99016 143.934 10.3721C146.146 10.604 146.435 10.704 147.164 10.732L146.213 13.7232C145.402 16.1156 143.051 26.7859 142.801 27.5847Z" fill="#7B0099"/>
<path d="M132.768 22.503C133.097 17.2564 128.042 15.3449 122.592 15.7188C119.74 15.9137 114.411 17.6003 114.411 22.503C114.411 27.3468 118.871 29.7892 124.813 29.2723C129.409 28.8714 131.322 27.1429 132.37 24.7985C132.369 24.7975 132.669 24.0986 132.768 22.503ZM136.891 21.7282C137.299 27.1919 130.993 31.7307 123.09 31.7307C119.803 31.7307 117.005 31.3318 113.763 29.1873C111.096 27.4228 109.822 25.8942 109.49 22.8849C108.9 17.5543 115.329 13.0734 124.269 13.1314C127.672 13.1314 130.951 13.6493 133.604 15.7178C135.968 17.5623 136.382 19.3119 136.814 21.3323L136.891 21.7282Z" fill="#7B0099"/>
<path d="M146.257 32.215H146.577C146.855 32.215 147.124 32.201 147.124 31.872C147.124 31.589 146.878 31.556 146.667 31.556H146.257V32.215ZM145.946 31.301H146.718C147.203 31.301 147.434 31.494 147.434 31.886C147.434 32.258 147.199 32.4139 146.892 32.4459L147.481 33.351H147.146L146.59 32.469H146.255V33.351H145.944V31.301H145.946ZM146.615 33.827C147.416 33.827 148.057 33.1759 148.057 32.3279C148.057 31.4799 147.416 30.829 146.615 30.829C145.809 30.829 145.173 31.4799 145.173 32.3279C145.173 33.1759 145.809 33.827 146.615 33.827ZM146.615 30.575C147.567 30.575 148.369 31.329 148.369 32.329C148.369 33.328 147.568 34.083 146.615 34.083C145.659 34.083 144.862 33.329 144.862 32.329C144.862 31.329 145.658 30.575 146.615 30.575Z" fill="#7B0099"/>
</svg>
